<!-- Generator: Adobe Illustrator 19.0.0, SVG Export Plug-In  -->
<svg version="1.1"
	 xmlns="http://www.w3.org/2000/svg" xmlns:xlink="http://www.w3.org/1999/xlink" xmlns:a="http://ns.adobe.com/AdobeSVGViewerExtensions/3.0/"
	 x="0px" y="0px" width="13.8px" height="12.1px" viewBox="0 0 13.8 12.1" style="enable-background:new 0 0 13.8 12.1;"
	 xml:space="preserve">
<style type="text/css">
	.st0{fill:#4E6F87;}
</style>
<defs>
</defs>
<path class="st0" d="M13.4,8.2c0.2,0,0.3-0.1,0.3-0.3V2.6L11.2,0H4.1C3.4,0,2.8,0.6,2.8,1.3v1.1H0.6C0.3,2.3,0,2.6,0,3v6.3
	C0,9.7,0.3,10,0.6,10h2.1v0.8c0,0.7,0.6,1.3,1.3,1.3h8.4c0.7,0,1.3-0.6,1.3-1.3v-1c0-0.2-0.1-0.3-0.3-0.3s-0.3,0.1-0.3,0.3v1
	c0,0.4-0.3,0.6-0.6,0.6H4.1c-0.4,0-0.6-0.3-0.6-0.6V10h3.5c0.4,0,0.6-0.3,0.6-0.6V3c0-0.4-0.3-0.6-0.6-0.6H3.4V1.3
	c0-0.4,0.3-0.6,0.6-0.6h6.5v1.7c0,0.5,0.4,1,1,1h1.6v4.6C13.1,8.1,13.2,8.2,13.4,8.2z M3.8,5.6l0.7-1h1L4.3,6.2l1.3,1.9h-1L3.8,6.8
	L2.9,8.1H2l1.3-1.9L2.1,4.6h1C3.1,4.6,3.8,5.6,3.8,5.6z M11.5,2.6c-0.2,0-0.3-0.1-0.3-0.3V0.9l1.7,1.7H11.5z"/>
<path class="st0" d="M10.9,7.6H9.3C9.1,7.6,9,7.7,9,7.9s0.1,0.3,0.3,0.3h1.6c0.2,0,0.3-0.1,0.3-0.3S11.1,7.6,10.9,7.6z M10.9,6H9.3
	C9.1,6,9,6.1,9,6.3s0.1,0.3,0.3,0.3h1.6c0.2,0,0.3-0.1,0.3-0.3S11.1,6,10.9,6z M10.9,4.4H9.3C9.1,4.4,9,4.5,9,4.7S9.1,5,9.3,5h1.6
	c0.2,0,0.3-0.1,0.3-0.3S11.1,4.4,10.9,4.4z"/>
</svg>
