<!-- Generator: Adobe Illustrator 19.0.0, SVG Export Plug-In  -->
<svg version="1.1"
	 xmlns="http://www.w3.org/2000/svg" xmlns:xlink="http://www.w3.org/1999/xlink" xmlns:a="http://ns.adobe.com/AdobeSVGViewerExtensions/3.0/"
	 x="0px" y="0px" width="14px" height="11.8px" viewBox="0 0 14 11.8" style="enable-background:new 0 0 14 11.8;"
	 xml:space="preserve">
<style type="text/css">
	.st0{fill:#4E6F87;}
</style>
<defs>
</defs>
<path class="st0" d="M3.9,2.5c0.5,0,0.8,0.4,0.8,0.8S4.4,4.2,3.9,4.2S3.1,3.8,3.1,3.4S3.5,2.5,3.9,2.5 M3.9,2C3.1,2,2.5,2.6,2.5,3.4
	s0.6,1.4,1.4,1.4s1.4-0.6,1.4-1.4S4.7,2,3.9,2z M3.4,9.7c0,0-0.1,0-0.1,0c-0.1-0.1-0.1-0.1,0-0.2c1-1,1.9-1.7,2.6-1.7
	c0.8,0,1.2,0.4,1.7,0.8c0.4,0.3,0.7,0.6,1.1,0.6c0.2,0,1,0,1.6-0.5c0.1-0.1,0.1,0,0.2,0c0.1,0.1,0,0.1,0,0.2C9.8,9.3,9,9.4,8.7,9.4
	C8.1,9.4,7.7,9,7.4,8.7C7,8.3,6.5,8,5.9,8C5.2,8,4.4,8.7,3.4,9.7C3.4,9.6,3.4,9.7,3.4,9.7z M11,8.2c0,0-0.1,0-0.1,0
	c-0.1-0.1,0-0.1,0-0.2l0.1-0.1c0.1-0.1,0.3-0.2,0.4-0.4c0.1-0.1,0.1,0,0.2,0c0.1,0.1,0,0.1,0,0.2c-0.1,0.1-0.3,0.2-0.4,0.4L11,8.2
	C11.1,8.2,11.1,8.2,11,8.2z"/>
<path class="st0" d="M0.3,9.8C0.1,9.8,0,9.7,0,9.5s0.1-0.3,0.3-0.3c0.7,0,1.8-1.1,2.8-2c1.1-1,2-1.9,2.8-1.9c0.8,0,1.3,0.5,1.8,1
	C8,6.7,8.3,7,8.7,7c0.4,0,1.3-0.9,2.1-1.5c1-0.9,2-1.8,2.7-1.8c0.2,0,0.3,0.1,0.3,0.3s-0.1,0.3-0.3,0.3c-0.5,0-1.5,0.9-2.3,1.7
	c-1,0.9-1.8,1.7-2.4,1.7c-0.6,0-1-0.4-1.4-0.9C6.9,6.3,6.5,5.9,5.9,5.9c-0.5,0-1.5,0.9-2.4,1.8C2.3,8.8,1.2,9.8,0.3,9.8z"/>
<path class="st0" d="M12.6,11.8H1.4c-0.8,0-1.4-0.6-1.4-1.4v-9C0,0.6,0.6,0,1.4,0h11.2C13.4,0,14,0.6,14,1.4v9
	C14,11.1,13.4,11.8,12.6,11.8z M1.4,0.6c-0.5,0-0.8,0.4-0.8,0.8v9c0,0.5,0.4,0.8,0.8,0.8h11.2c0.5,0,0.8-0.4,0.8-0.8v-9
	c0-0.5-0.4-0.8-0.8-0.8L1.4,0.6L1.4,0.6z"/>
</svg>
