<!-- Generator: Adobe Illustrator 19.0.0, SVG Export Plug-In  -->
<svg version="1.1"
	 xmlns="http://www.w3.org/2000/svg" xmlns:xlink="http://www.w3.org/1999/xlink" xmlns:a="http://ns.adobe.com/AdobeSVGViewerExtensions/3.0/"
	 x="0px" y="0px" width="14px" height="14px" viewBox="0 0 14 14" style="enable-background:new 0 0 14 14;" xml:space="preserve">
<style type="text/css">
	.st0{fill:#4E6F87;}
</style>
<defs>
</defs>
<path class="st0" d="M0,5.9h8.1V14H0V5.9z M0.8,13.2h6.6V6.6H0.8V13.2z M14,4.8v8.9H8.8v-0.8h4.4V5.1l-0.3-0.3H9.2V1.1L8.8,0.8H3.6
	v4.5H2.9V0h6.3L14,4.8z M12.1,4L9.9,1.9V4H12.1z M4.9,12.2H4.1L4,9.2l-1.5,2.9H1.7l-0.2-4h0.8l0,2.8l1.4-2.8h0.9l0.1,2.8L6,8.1h0.8
	L4.9,12.2z"/>
</svg>
