<!-- Generator: Adobe Illustrator 19.0.0, SVG Export Plug-In  -->
<svg version="1.1"
	 xmlns="http://www.w3.org/2000/svg" xmlns:xlink="http://www.w3.org/1999/xlink" xmlns:a="http://ns.adobe.com/AdobeSVGViewerExtensions/3.0/"
	 x="0px" y="0px" width="42.1px" height="36.4px" viewBox="0 0 42.1 36.4" style="enable-background:new 0 0 42.1 36.4;"
	 xml:space="preserve">
<style type="text/css">
	.st0{fill:#FFFFFF;}
</style>
<defs>
</defs>
<path class="st0" d="M31.6,0h-21L0,18.2l10.5,18.2h21l10.5-18.2L31.6,0z M30.6,34.7h-19L2,18.2l9.5-16.5h19l9.5,16.5L30.6,34.7z"/>
<path class="st0" d="M10.6,13.5h20.9c0.5,0,0.9-0.4,0.9-0.9V9.2c0-0.5-0.4-0.9-0.9-0.9H10.6c-0.5,0-0.9,0.4-0.9,0.9v3.5
	C9.8,13.1,10.1,13.5,10.6,13.5z M11.5,10h19.1v1.7H11.5C11.5,11.8,11.5,10,11.5,10z M10.6,18.3h9.6v0.9c0,0.5,0.4,0.9,0.9,0.9
	c0.5,0,0.9-0.4,0.9-0.9v-0.9h9.4c0.5,0,0.9-0.4,0.9-0.9c0-0.5-0.4-0.9-0.9-0.9h-9.4v-0.8c0-0.5-0.4-0.9-0.9-0.9
	c-0.5,0-0.9,0.4-0.9,0.9v0.8h-9.6c-0.5,0-0.9,0.4-0.9,0.9S10.1,18.3,10.6,18.3z M14.9,21.4h-4.3c-0.5,0-0.9,0.4-0.9,0.9v4.4
	c0,0.5,0.4,0.9,0.9,0.9h4.3c0.5,0,0.9-0.4,0.9-0.9v-4.4C15.8,21.8,15.4,21.4,14.9,21.4z M14,25.7h-2.6v-2.6H14V25.7z M23.2,21.4
	h-4.3c-0.5,0-0.9,0.4-0.9,0.9v4.4c0,0.5,0.4,0.9,0.9,0.9h4.3c0.5,0,0.9-0.4,0.9-0.9v-4.4C24.1,21.8,23.7,21.4,23.2,21.4z M22.3,25.7
	h-2.6v-2.6h2.6V25.7z M31.5,21.4h-4.3c-0.5,0-0.9,0.4-0.9,0.9v4.4c0,0.5,0.4,0.9,0.9,0.9h4.3c0.5,0,0.9-0.4,0.9-0.9v-4.4
	C32.4,21.8,32,21.4,31.5,21.4z M30.6,25.7h-2.6v-2.6h2.6V25.7z"/>
</svg>
