<!-- Generator: Adobe Illustrator 19.0.0, SVG Export Plug-In  -->
<svg version="1.1"
	 xmlns="http://www.w3.org/2000/svg" xmlns:xlink="http://www.w3.org/1999/xlink" xmlns:a="http://ns.adobe.com/AdobeSVGViewerExtensions/3.0/"
	 x="0px" y="0px" width="42.1px" height="36.4px" viewBox="0 0 42.1 36.4" style="enable-background:new 0 0 42.1 36.4;"
	 xml:space="preserve">
<style type="text/css">
	.st0{fill:#FFFFFF;}
</style>
<defs>
</defs>
<path class="st0" d="M31.6,0h-21L0,18.2l10.5,18.2h21l10.5-18.2L31.6,0z M30.6,34.7h-19L2,18.2l9.5-16.5h19l9.5,16.5L30.6,34.7z"/>
<path class="st0" d="M12.8,10.5L10,15.3l2.8,4.8h5.5l2.8-4.8l-2.8-4.8H12.8z M18.3,20.1l-2.8,4.8l2.8,4.8h5.5l2.8-4.8l-2.8-4.8H18.3
	z M29.3,10.5h-5.5l-2.8,4.8l2.8,4.8h5.5l2.8-4.8L29.3,10.5z"/>
</svg>
