<!-- Generator: Adobe Illustrator 19.0.0, SVG Export Plug-In  -->
<svg version="1.1"
	 xmlns="http://www.w3.org/2000/svg" xmlns:xlink="http://www.w3.org/1999/xlink" xmlns:a="http://ns.adobe.com/AdobeSVGViewerExtensions/3.0/"
	 x="0px" y="0px" width="42.1px" height="36.4px" viewBox="0 0 42.1 36.4" style="enable-background:new 0 0 42.1 36.4;"
	 xml:space="preserve">
<style type="text/css">
	.st0{fill:#FFFFFF;}
</style>
<defs>
</defs>
<path class="st0" d="M31.6,0h-21L0,18.2l10.5,18.2h21l10.5-18.2L31.6,0z M30.6,34.7h-19L2,18.2l9.5-16.5h19l9.5,16.5L30.6,34.7z"/>
<path class="st0" d="M29.1,13.6c-0.4,0-0.8,0.4-0.8,0.8v12H13.9v-16h10.4c0.4,0,0.8-0.4,0.8-0.8s-0.4-0.8-0.8-0.8H13.1
	c-0.4,0-0.8,0.4-0.8,0.8v17.6c0,0.4,0.4,0.8,0.8,0.8h16c0.4,0,0.8-0.4,0.8-0.8V14.4C29.9,14,29.6,13.6,29.1,13.6z"/>
<path class="st0" d="M20.5,18.2c0.2,0.2,0.4,0.2,0.6,0.2s0.4-0.1,0.6-0.2l8-8c0.3-0.3,0.3-0.8,0-1.1c-0.3-0.3-0.8-0.3-1.1,0l-8,8
	C20.1,17.3,20.1,17.8,20.5,18.2z M26.7,20.5c0-0.4-0.4-0.8-0.8-0.8h-9.5c-0.4,0-0.8,0.4-0.8,0.8s0.4,0.8,0.8,0.8h9.5
	C26.4,21.3,26.7,20.9,26.7,20.5z M16.4,22.9c-0.4,0-0.8,0.4-0.8,0.8c0,0.4,0.4,0.8,0.8,0.8h6.3c0.4,0,0.8-0.4,0.8-0.8
	c0-0.4-0.4-0.8-0.8-0.8H16.4z"/>
</svg>
