<!-- Generator: Adobe Illustrator 19.0.0, SVG Export Plug-In  -->
<svg version="1.1"
	 xmlns="http://www.w3.org/2000/svg" xmlns:xlink="http://www.w3.org/1999/xlink" xmlns:a="http://ns.adobe.com/AdobeSVGViewerExtensions/3.0/"
	 x="0px" y="0px" width="42.1px" height="36.4px" viewBox="0 0 42.1 36.4" style="enable-background:new 0 0 42.1 36.4;"
	 xml:space="preserve">
<style type="text/css">
	.st0{fill:#4E6F87;}
</style>
<defs>
</defs>
<path class="st0" d="M31.6,0h-21L0,18.2l10.5,18.2h21l10.5-18.2L31.6,0z M30.6,34.7h-19L2,18.2l9.5-16.5h19l9.5,16.5L30.6,34.7z"/>
<path class="st0" d="M28.9,18.9c-0.7,0-1.3,0.2-1.7,0.6l-6.4-3.7C21,15.5,21,15,21,14.5c0-0.4,0-0.8-0.1-1.1l4.5-2.2
	c0.5,0.5,1.1,0.7,1.8,0.7c1.5,0,2.6-1.2,2.6-2.6c0-1.5-1.2-2.6-2.6-2.6c-1.5,0-2.6,1.2-2.6,2.6c0,0.1,0,0.2,0,0.3l-4.5,2.2
	c-0.8-1-2-1.7-3.4-1.7c-2.4,0-4.4,2-4.4,4.4c0,1.9,1.2,3.5,2.8,4.1l-0.6,3.8c-1.2,0.2-2.2,1.3-2.2,2.6c0,1.5,1.2,2.6,2.6,2.6
	c1.5,0,2.6-1.2,2.6-2.6c0-1-0.5-1.9-1.4-2.3l0.6-3.8c1.2,0,2.4-0.6,3.1-1.5l6.4,3.7c0,0.2,0,0.3,0,0.5c0,1.5,1.2,2.6,2.6,2.6
	c1.5,0,2.6-1.2,2.6-2.6C31.6,20.1,30.4,18.9,28.9,18.9z"/>
</svg>
