<!-- Generator: Adobe Illustrator 19.0.0, SVG Export Plug-In  -->
<svg version="1.1"
	 xmlns="http://www.w3.org/2000/svg" xmlns:xlink="http://www.w3.org/1999/xlink" xmlns:a="http://ns.adobe.com/AdobeSVGViewerExtensions/3.0/"
	 x="0px" y="0px" width="14px" height="12.1px" viewBox="0 0 14 12.1" style="enable-background:new 0 0 14 12.1;"
	 xml:space="preserve">
<style type="text/css">
	.st0{fill:#4E6F87;}
</style>
<defs>
</defs>
<path class="st0" d="M10.5,0h-7L0,6.1l3.5,6.1h7L14,6.1L10.5,0z M10.2,11.6H3.8L0.7,6.1l3.2-5.5h6.3l3.2,5.5L10.2,11.6z"/>
<path class="st0" d="M9.5,5.4l1.6-0.8L7,2.6l-4.1,2l1.6,0.8L2.9,6.2l1.4,0.7L2.9,7.6l4.1,2l4.1-2L9.7,6.9l1.4-0.7L9.5,5.4z M7,6.6
	l0.4-0.2l0.9,0.5L7,7.6L5.6,6.9l0.9-0.5C6.5,6.4,7,6.6,7,6.6z M4.2,6.2l0.9-0.5l0.8,0.4L5,6.6C5,6.6,4.2,6.2,4.2,6.2z M9.8,7.6L7,9
	L4.2,7.6L5,7.2l2,1l2-1C9,7.2,9.8,7.6,9.8,7.6z M8.1,6.1l0.8-0.4l0.9,0.5L9,6.6L8.1,6.1z"/>
</svg>
