<!-- Generator: Adobe Illustrator 19.0.0, SVG Export Plug-In  -->
<svg version="1.1"
	 xmlns="http://www.w3.org/2000/svg" xmlns:xlink="http://www.w3.org/1999/xlink" xmlns:a="http://ns.adobe.com/AdobeSVGViewerExtensions/3.0/"
	 x="0px" y="0px" width="16px" height="12.6px" viewBox="0 0 16 12.6" style="enable-background:new 0 0 16 12.6;"
	 xml:space="preserve">
<style type="text/css">
	.st0{fill:#4276A9;}
</style>
<defs>
</defs>
<path class="st0" d="M7.8,6.1c0.8-0.6,1.3-1.6,1.3-2.7C9.1,1.5,7.6,0,5.7,0S2.2,1.5,2.2,3.4c0,1.1,0.5,2.1,1.3,2.7C1.5,7,0,9,0,11.4
	V12c0,0.3,0.3,0.6,0.6,0.6h10.3c0.3,0,0.6-0.3,0.6-0.6v-0.6C11.4,9,9.9,6.9,7.8,6.1z M3.4,3.4c0-1.3,1-2.3,2.3-2.3S8,2.2,8,3.4
	c0,1.2-1,2.3-2.2,2.3c0,0,0,0,0,0c0,0,0,0-0.1,0C4.4,5.7,3.4,4.7,3.4,3.4z M1.1,11.4L1.1,11.4c0-2.5,2-4.6,4.5-4.6c0,0,0,0,0,0
	c0,0,0,0,0.1,0c2.5,0,4.5,2.1,4.5,4.6L1.1,11.4z"/>
<path class="st0" d="M10.8,2.3H16v1.1h-5.1V2.3z"/>
<path class="st0" d="M10.8,5.2H16v1.1h-5.1V5.2z"/>
<path class="st0" d="M12.6,8H16v1.1h-3.4V8z"/>
</svg>
