<!-- Generator: Adobe Illustrator 19.0.0, SVG Export Plug-In  -->
<svg version="1.1"
	 xmlns="http://www.w3.org/2000/svg" xmlns:xlink="http://www.w3.org/1999/xlink" xmlns:a="http://ns.adobe.com/AdobeSVGViewerExtensions/3.0/"
	 x="0px" y="0px" width="14px" height="12.1px" viewBox="0 0 14 12.1" style="enable-background:new 0 0 14 12.1;"
	 xml:space="preserve">
<style type="text/css">
	.st0{fill:#4E6F87;}
</style>
<defs>
</defs>
<path class="st0" d="M10.5,0h-7L0,6.1l3.5,6.1h7L14,6.1L10.5,0z M10.2,11.6H3.8L0.7,6.1l3.2-5.5h6.3l3.2,5.5L10.2,11.6z"/>
<path class="st0" d="M10.1,3.1C9.3,2.2,8.2,1.8,7,1.8S4.7,2.2,3.9,3.1S2.6,5,2.6,6.2s0.5,2.3,1.3,3.1s1.9,1.3,3.1,1.3
	s2.3-0.5,3.1-1.3s1.3-1.9,1.3-3.1S10.9,3.9,10.1,3.1z M7.3,2.4C8.2,2.5,9,2.9,9.6,3.5s1,1.4,1.1,2.3H9.6c0-0.3-0.1-0.5-0.2-0.8
	c0.1-0.2,0.2-0.4,0.2-0.6c0-0.5-0.4-1-1-1C8.4,3.5,8.2,3.6,8,3.7C7.8,3.6,7.6,3.6,7.3,3.6L7.3,2.4L7.3,2.4z M7.3,6.5H9
	C8.8,7.3,8.2,8,7.3,8.1C7.3,8.1,7.3,6.5,7.3,6.5z M9,4.4c0,0.2-0.2,0.3-0.3,0.3S8.4,4.6,8.4,4.4s0.2-0.3,0.3-0.3S9,4.2,9,4.4z
	 M7.7,4.3c0,0,0,0.1,0,0.1c0,0.5,0.4,1,1,1c0.1,0,0.1,0,0.2,0C8.9,5.5,8.9,5.7,9,5.8H7.3V4.2C7.5,4.2,7.6,4.3,7.7,4.3z M6.7,5.8H5.1
	C5.2,5,5.9,4.3,6.7,4.2C6.7,4.2,6.7,5.8,6.7,5.8z M4.4,3.5c0.6-0.6,1.4-1,2.3-1.1v1.1C5.5,3.7,4.6,4.6,4.4,5.8H3.3
	C3.4,5,3.7,4.1,4.4,3.5z M6.7,9.9C5.8,9.8,5,9.4,4.4,8.8s-1-1.4-1.1-2.3h1.1c0.1,1.2,1.1,2.1,2.3,2.3L6.7,9.9L6.7,9.9z M5.1,6.5h1.6
	v1.6C5.9,8,5.2,7.3,5.1,6.5z M9.6,8.8C9,9.4,8.2,9.8,7.3,9.9V8.7c1.2-0.1,2.1-1.1,2.3-2.3h1.1C10.7,7.4,10.3,8.2,9.6,8.8z"/>
</svg>
