<!-- Generator: Adobe Illustrator 19.0.0, SVG Export Plug-In  -->
<svg version="1.1"
	 xmlns="http://www.w3.org/2000/svg" xmlns:xlink="http://www.w3.org/1999/xlink" xmlns:a="http://ns.adobe.com/AdobeSVGViewerExtensions/3.0/"
	 x="0px" y="0px" width="42.1px" height="36.4px" viewBox="0 0 42.1 36.4" style="enable-background:new 0 0 42.1 36.4;"
	 xml:space="preserve">
<style type="text/css">
	.st0{fill:#4E6F87;}
</style>
<defs>
</defs>
<path class="st0" d="M31.6,0h-21L0,18.2l10.5,18.2h21l10.5-18.2L31.6,0z M30.6,34.7h-19L2,18.2l9.5-16.5h19l9.5,16.5L30.6,34.7z"/>
<path class="st0" d="M28.7,13.7c-0.4,0-0.8,0.4-0.8,0.8v12H13.5v-16h10.4c0.4,0,0.8-0.4,0.8-0.8s-0.4-0.8-0.8-0.8H12.7
	c-0.4,0-0.8,0.4-0.8,0.8v17.6c0,0.4,0.4,0.8,0.8,0.8h16c0.4,0,0.8-0.4,0.8-0.8V14.5C29.5,14.1,29.2,13.7,28.7,13.7z"/>
<path class="st0" d="M20.1,18.3c0.2,0.2,0.4,0.2,0.6,0.2s0.4-0.1,0.6-0.2l8-8c0.3-0.3,0.3-0.8,0-1.1c-0.3-0.3-0.8-0.3-1.1,0l-8,8
	C19.8,17.5,19.8,18,20.1,18.3z M26.3,20.6c0-0.4-0.4-0.8-0.8-0.8H16c-0.4,0-0.8,0.4-0.8,0.8s0.4,0.8,0.8,0.8h9.5
	C26,21.4,26.3,21,26.3,20.6z M16,23.1c-0.4,0-0.8,0.4-0.8,0.8c0,0.4,0.4,0.8,0.8,0.8h6.3c0.4,0,0.8-0.4,0.8-0.8
	c0-0.4-0.4-0.8-0.8-0.8H16z"/>
</svg>
